<svg xmlns="http://www.w3.org/2000/svg" id="ALL_Logos" data-name="ALL Logos" viewBox="0 0 600 207.89"><defs><style>.cls-1{fill:#cecccd}.cls-1,.cls-2,.cls-3{stroke-width:0}.cls-2{fill:#fff}.cls-3{fill:#f4f4f4}</style></defs><path d="m12.95 81.29 5.47-3.17c.99 2.3 2.69 3.84 5.82 3.84S28 80.77 28 79.7c0-1.7-1.58-2.38-5.74-3.53-4.12-1.15-8.16-3.13-8.16-8.44s4.52-8.44 9.31-8.44 8.12 2.18 10.14 6.26l-5.35 3.13c-.95-1.98-2.26-3.21-4.79-3.21-1.98 0-2.97.99-2.97 2.1 0 1.27.67 2.14 4.99 3.45 4.2 1.27 8.91 2.73 8.91 8.6 0 5.35-4.28 8.52-10.3 8.52s-9.55-2.77-11.09-6.85Z" class="cls-2"/><path d="M49.59 76.93v10.66h-6.34V76.93l-9.31-17.07h7.21l5.27 10.69 5.27-10.69h7.21l-9.31 17.07Z" class="cls-2"/><path d="M83.07 59.86v27.73h-4.75l-10.7-15.05v15.05h-6.34V59.86h4.75l10.7 15.05V59.86h6.34Z" class="cls-2"/><path d="M112.38 73.73c0 7.84-5.82 13.86-13.47 13.86H87.82V59.86h11.09c7.65 0 13.47 6.02 13.47 13.86Zm-6.1 0c0-4.75-3.01-7.76-7.37-7.76h-4.75V81.5h4.75c4.36 0 7.37-3.01 7.37-7.76Z" class="cls-2"/><path d="M122.29 59.86v27.73h-6.34V59.86h6.34Z" class="cls-2"/><path d="M125.86 73.73c0-8.16 6.06-14.42 14.42-14.42 5.03 0 9.47 2.5 11.88 6.42l-5.47 3.17c-1.23-2.14-3.6-3.41-6.42-3.41-4.91 0-8.08 3.29-8.08 8.24s3.17 8.24 8.08 8.24c2.81 0 5.23-1.27 6.42-3.41l5.47 3.17c-2.38 3.92-6.81 6.42-11.88 6.42-8.36 0-14.42-6.26-14.42-14.42Z" class="cls-2"/><path d="M171.38 83.23h-10.3l-1.39 4.36h-6.93l9.43-27.73h8.08l9.43 27.73h-6.93l-1.39-4.36Zm-1.91-5.94-3.25-10.18-3.25 10.18h6.5Z" class="cls-2"/><path d="M198.71 65.96h-7.13v21.63h-6.34V65.96h-7.13v-6.1h20.6v6.1Z" class="cls-2"/><path d="M36.68 120.06v6.1H19.25V98.43h17.23v6.1H25.59v4.59h9.9v6.02h-9.9v4.91h11.09Zm-6.66-24h-5.7l3.17-5.55h7.13l-4.59 5.55Z" class="cls-2"/><path d="M58.86 104.53h-7.13v21.63h-6.34v-21.63h-7.13v-6.1h20.6v6.1Z" class="cls-2"/><path d="M61.44 117.21V98.43h6.34v18.22c0 2.1.99 3.88 4.36 3.88s4.36-1.78 4.36-3.88V98.43h6.34v18.78c0 5.94-4.6 9.51-10.7 9.51s-10.7-3.56-10.7-9.51Z" class="cls-2"/><path d="M111.95 112.3c0 7.84-5.82 13.86-13.47 13.86H87.39V98.43h11.09c7.65 0 13.47 6.02 13.47 13.86Zm-6.1 0c0-4.75-3.01-7.76-7.37-7.76h-4.75v15.53h4.75c4.36 0 7.37-3.01 7.37-7.76Z" class="cls-2"/><path d="M121.86 98.43v27.73h-6.34V98.43h6.34Z" class="cls-2"/><path d="M142.85 121.8h-10.3l-1.39 4.36h-6.93l9.43-27.73h8.08l9.43 27.73h-6.93l-1.39-4.36Zm-1.9-5.94-3.25-10.18-3.25 10.18h6.5Z" class="cls-2"/><path d="M175.34 98.43v27.73h-4.75l-10.7-15.05v15.05h-6.34V98.43h4.75l10.7 15.05V98.43h6.34Z" class="cls-2"/><path d="M198.71 104.53h-7.13v21.63h-6.34v-21.63h-7.13v-6.1h20.6v6.1Z" class="cls-2"/><path d="M19.16 136.28v12.11h-.87v-2.01c-.71 1.33-2.04 2.2-3.72 2.2-2.47 0-4.48-1.96-4.48-4.52s2.01-4.52 4.48-4.52c1.68 0 3.01.87 3.72 2.2v-5.47h.87Zm-.87 7.79c0-2.06-1.61-3.69-3.67-3.69s-3.67 1.63-3.67 3.69 1.61 3.69 3.67 3.69 3.67-1.63 3.67-3.69Z" class="cls-2"/><path d="M29.99 144.1c0 .14-.02.28-.02.42h-7.84c.21 1.96 1.7 3.24 3.67 3.24 1.42 0 2.49-.66 2.99-1.57l.76.45c-.71 1.18-2.06 1.96-3.77 1.96-2.67 0-4.55-1.9-4.55-4.52s1.83-4.52 4.48-4.52 4.27 2.18 4.27 4.55Zm-7.86-.43h6.96c-.19-2.11-1.68-3.29-3.37-3.29-1.97 0-3.41 1.37-3.58 3.29Z" class="cls-2"/><path d="M36.63 135.76h.87v12.63h-.87v-12.63Z" class="cls-2"/><path d="M40.7 139.88h-.8l.66-3.6h1.07l-.93 3.6Z" class="cls-2"/><path d="M44.02 144.34v-8.06h.92v8.06c0 1.97 1.23 3.36 3.51 3.36s3.53-1.38 3.53-3.36v-8.06h.92v8.06c0 2.56-1.78 4.24-4.45 4.24s-4.43-1.68-4.43-4.24Z" class="cls-2"/><path d="M62.88 143.01v5.38H62v-5.38c0-1.59-.92-2.63-2.54-2.63s-3.03 1.11-3.03 3.44v4.57h-.87v-8.65h.87v1.64c.66-1.28 1.77-1.83 3.1-1.83 2.06 0 3.36 1.37 3.36 3.46Z" class="cls-2"/><path d="M65.06 136.96c0-.36.31-.67.69-.67s.69.31.69.67-.31.69-.69.69-.69-.31-.69-.69Zm.26 2.78h.87v8.65h-.87v-8.65Z" class="cls-2"/><path d="m76.11 139.74-3.65 8.65H71.4l-3.67-8.65h.93l3.25 7.75 3.27-7.75h.92Z" class="cls-2"/><path d="M85.51 144.1c0 .14-.02.28-.02.42h-7.84c.21 1.96 1.7 3.24 3.67 3.24 1.42 0 2.49-.66 2.99-1.57l.76.45c-.71 1.18-2.06 1.96-3.77 1.96-2.67 0-4.55-1.9-4.55-4.52s1.83-4.52 4.48-4.52 4.27 2.18 4.27 4.55Zm-7.86-.43h6.96c-.19-2.11-1.68-3.29-3.37-3.29-1.97 0-3.41 1.37-3.58 3.29Z" class="cls-2"/><path d="M91.29 139.62v.83c-1.49 0-2.89.92-2.89 3.13v4.81h-.87v-8.65h.87v1.7c.59-1.37 1.71-1.82 2.89-1.82Z" class="cls-2"/><path d="M98.52 146.13c0 1.42-1.25 2.46-3.1 2.46-1.73 0-2.87-.81-3.29-1.92l.74-.43c.31.93 1.25 1.52 2.54 1.52 1.21 0 2.23-.54 2.23-1.63 0-2.35-5.24-1-5.24-4.12 0-1.37 1.18-2.46 2.94-2.46 1.4 0 2.47.67 2.94 1.73l-.73.42c-.36-.9-1.26-1.32-2.21-1.32-1.12 0-2.08.59-2.08 1.63 0 2.32 5.24.95 5.24 4.12Z" class="cls-2"/><path d="M100.27 136.96c0-.36.31-.67.69-.67s.69.31.69.67-.31.69-.69.69-.69-.31-.69-.69Zm.26 2.78h.87v8.65h-.87v-8.65Z" class="cls-2"/><path d="M105.91 140.59v5.62c0 1.52.81 1.56 2.58 1.4v.78c-2.27.35-3.46-.21-3.46-2.18v-5.62h-1.9v-.85h1.9v-2.16l.88-.26v2.42h2.58v.85h-2.58Z" class="cls-2"/><path d="M118.21 144.1c0 .14-.02.28-.02.42h-7.84c.21 1.96 1.7 3.24 3.67 3.24 1.42 0 2.49-.66 2.99-1.57l.76.45c-.71 1.18-2.06 1.96-3.77 1.96-2.67 0-4.55-1.9-4.55-4.52s1.83-4.52 4.48-4.52 4.27 2.18 4.27 4.55Zm-7.86-.43h6.96c-.19-2.11-1.68-3.29-3.37-3.29-1.97 0-3.41 1.37-3.58 3.29Zm3.6-5.14h-.85l1.38-2.2h1.04l-1.57 2.2Z" class="cls-2"/><path d="M133.35 136.28v12.11h-.87v-2.01c-.71 1.33-2.04 2.2-3.72 2.2-2.47 0-4.48-1.96-4.48-4.52s2.01-4.52 4.48-4.52c1.68 0 3.01.87 3.72 2.2v-5.47h.87Zm-.87 7.79c0-2.06-1.61-3.69-3.67-3.69s-3.67 1.63-3.67 3.69 1.61 3.69 3.67 3.69 3.67-1.63 3.67-3.69Z" class="cls-2"/><path d="M136.55 139.88h-.8l.66-3.6h1.07l-.93 3.6Z" class="cls-2"/><path d="M138.66 142.34c0-3.46 2.75-6.25 6.25-6.25s6.25 2.79 6.25 6.25-2.75 6.25-6.25 6.25-6.25-2.79-6.25-6.25Zm11.58 0c0-2.98-2.34-5.36-5.33-5.36s-5.33 2.39-5.33 5.36 2.34 5.36 5.33 5.36 5.33-2.39 5.33-5.36Z" class="cls-2"/><path d="M155.15 140.59v5.62c0 1.52.81 1.56 2.58 1.4v.78c-2.27.35-3.46-.21-3.46-2.18v-5.62h-1.9v-.85h1.9v-2.16l.88-.26v2.42h2.58v.85h-2.58Z" class="cls-2"/><path d="M161.01 140.59v5.62c0 1.52.81 1.56 2.58 1.4v.78c-2.27.35-3.46-.21-3.46-2.18v-5.62h-1.9v-.85h1.9v-2.16l.88-.26v2.42h2.58v.85h-2.58Z" class="cls-2"/><path d="M173.65 139.74v8.65h-.88v-1.96c-.73 1.3-2.06 2.15-3.72 2.15-2.46 0-4.48-1.96-4.48-4.52s2.02-4.52 4.48-4.52c1.66 0 2.99.85 3.72 2.15v-1.96h.88Zm-.89 4.33c0-2.06-1.59-3.69-3.65-3.69s-3.67 1.63-3.67 3.69 1.61 3.69 3.67 3.69 3.65-1.63 3.65-3.69Z" class="cls-2"/><path d="m187.73 139.74-2.73 8.65h-.95l-2.41-7.37-2.41 7.37h-.95l-2.73-8.65h.92l2.3 7.53 2.42-7.53h.9l2.42 7.53 2.3-7.53h.92Z" class="cls-2"/><path d="M197.78 139.74v8.65h-.88v-1.96c-.73 1.3-2.06 2.15-3.72 2.15-2.46 0-4.48-1.96-4.48-4.52s2.02-4.52 4.48-4.52c1.66 0 2.99.85 3.72 2.15v-1.96h.88Zm-.88 4.33c0-2.06-1.59-3.69-3.65-3.69s-3.67 1.63-3.67 3.69 1.61 3.69 3.67 3.69 3.65-1.63 3.65-3.69Z" class="cls-2"/><path d="M398.9 68.7v-9.68h1.1v9.68c0 2.37 1.47 4.03 4.21 4.03s4.24-1.66 4.24-4.03v-9.68h1.1v9.68c0 3.07-2.14 5.09-5.34 5.09s-5.32-2.01-5.32-5.09Z" class="cls-2"/><path d="M421.53 67.11v6.46h-1.06v-6.46c0-1.91-1.1-3.16-3.05-3.16s-3.63 1.33-3.63 4.13v5.48h-1.04V63.18h1.04v1.97c.79-1.54 2.12-2.2 3.72-2.2 2.47 0 4.03 1.64 4.03 4.15Z" class="cls-2"/><path d="M424.14 59.84c0-.44.37-.81.83-.81s.83.37.83.81-.37.83-.83.83-.83-.37-.83-.83Zm.32 3.34h1.04v10.38h-1.04V63.18Z" class="cls-2"/><path d="m437.41 63.18-4.38 10.38h-1.27l-4.4-10.38h1.12l3.9 9.3 3.92-9.3h1.1Z" class="cls-2"/><path d="M448.69 68.41c0 .17-.02.33-.02.5h-9.41c.25 2.35 2.04 3.88 4.4 3.88 1.7 0 2.99-.79 3.59-1.89l.91.54c-.85 1.41-2.47 2.35-4.53 2.35-3.2 0-5.46-2.28-5.46-5.42s2.2-5.42 5.38-5.42 5.13 2.62 5.13 5.46Zm-9.43-.52h8.35c-.23-2.53-2.01-3.95-4.05-3.95-2.37 0-4.09 1.64-4.3 3.95Z" class="cls-2"/><path d="M455.62 63.04v1c-1.79 0-3.47 1.1-3.47 3.76v5.77h-1.04V63.19h1.04v2.04c.71-1.64 2.06-2.18 3.47-2.18Z" class="cls-2"/><path d="M464.3 70.84c0 1.7-1.5 2.95-3.72 2.95-2.08 0-3.45-.98-3.95-2.31l.89-.52c.37 1.12 1.5 1.83 3.05 1.83 1.45 0 2.68-.64 2.68-1.95 0-2.82-6.29-1.2-6.29-4.94 0-1.64 1.41-2.95 3.53-2.95 1.68 0 2.97.81 3.53 2.08l-.87.5c-.44-1.08-1.52-1.58-2.66-1.58-1.35 0-2.49.71-2.49 1.95 0 2.78 6.29 1.14 6.29 4.94Z" class="cls-2"/><path d="M466.4 59.84c0-.44.37-.81.83-.81s.83.37.83.81-.37.83-.83.83-.83-.37-.83-.83Zm.31 3.34h1.04v10.38h-1.04V63.18Z" class="cls-2"/><path d="M473.17 64.2v6.75c0 1.83.98 1.87 3.09 1.68v.93c-2.72.42-4.15-.25-4.15-2.62v-6.75h-2.28v-1.02h2.28v-2.6l1.06-.31v2.91h3.09v1.02h-3.09Z" class="cls-2"/><path d="m487.68 63.18-4.49 11.34c-.79 1.99-2.33 3.34-4.11 3.2v-.98c1.39.12 2.45-.91 3.09-2.43l.23-.56-4.78-10.57h1.12l4.19 9.24 3.61-9.24h1.12Z" class="cls-2"/><path d="M494.38 68.37c0-3.07 2.43-5.42 5.46-5.42s5.44 2.35 5.44 5.42-2.43 5.42-5.44 5.42-5.46-2.35-5.46-5.42Zm9.85 0c0-2.47-1.91-4.42-4.38-4.42s-4.4 1.95-4.4 4.42 1.93 4.42 4.4 4.42 4.38-1.95 4.38-4.42Z" class="cls-2"/><path d="M509.17 62.62v.56h3.09v1.02h-3.09v9.37h-1.06V64.2h-1.79v-1.02h1.79v-.56c0-2.55 1.43-4.03 4.15-3.82v1c-2.12-.17-3.09.81-3.09 2.82Z" class="cls-2"/><path d="M518.78 66.3c0-4.15 3.3-7.5 7.5-7.5s7.5 3.34 7.5 7.5-3.3 7.5-7.5 7.5-7.5-3.34-7.5-7.5Zm13.89 0c0-3.57-2.8-6.44-6.4-6.44s-6.4 2.87-6.4 6.44 2.8 6.44 6.4 6.44 6.4-2.87 6.4-6.44Z" class="cls-2"/><path d="M538.57 64.2v6.75c0 1.83.98 1.87 3.09 1.68v.93c-2.72.42-4.15-.25-4.15-2.62v-6.75h-2.28v-1.02h2.28v-2.6l1.06-.31v2.91h3.09v1.02h-3.09Z" class="cls-2"/><path d="M545.61 64.2v6.75c0 1.83.98 1.87 3.09 1.68v.93c-2.72.42-4.15-.25-4.15-2.62v-6.75h-2.28v-1.02h2.28v-2.6l1.06-.31v2.91h3.09v1.02h-3.09Z" class="cls-2"/><path d="M560.77 63.18v10.38h-1.06v-2.35c-.87 1.56-2.47 2.58-4.46 2.58-2.95 0-5.38-2.35-5.38-5.42s2.43-5.42 5.38-5.42c1.99 0 3.59 1.02 4.46 2.57v-2.35h1.06Zm-1.06 5.19c0-2.47-1.91-4.42-4.38-4.42s-4.4 1.95-4.4 4.42 1.93 4.42 4.4 4.42 4.38-1.95 4.38-4.42Z" class="cls-2"/><path d="m577.67 63.18-3.28 10.38h-1.14l-2.89-8.85-2.89 8.85h-1.14l-3.28-10.38h1.1l2.76 9.03 2.91-9.03h1.08l2.91 9.03 2.76-9.03h1.1Z" class="cls-2"/><path d="M589.73 63.18v10.38h-1.06v-2.35c-.87 1.56-2.47 2.58-4.46 2.58-2.95 0-5.38-2.35-5.38-5.42s2.43-5.42 5.38-5.42c1.99 0 3.59 1.02 4.46 2.57v-2.35h1.06Zm-1.06 5.19c0-2.47-1.91-4.42-4.38-4.42s-4.4 1.95-4.4 4.42 1.93 4.42 4.4 4.42 4.38-1.95 4.38-4.42Z" class="cls-2"/><path d="m398.26 104.94 5.32-3.08c.96 2.23 2.62 3.74 5.66 3.74s3.66-1.16 3.66-2.2c0-1.66-1.54-2.31-5.59-3.43-4.01-1.12-7.94-3.04-7.94-8.21s4.39-8.21 9.05-8.21 7.9 2.12 9.86 6.09l-5.2 3.04c-.92-1.93-2.2-3.12-4.66-3.12-1.93 0-2.89.96-2.89 2.04 0 1.23.66 2.08 4.85 3.35 4.08 1.23 8.67 2.66 8.67 8.36 0 5.2-4.16 8.28-10.02 8.28s-9.29-2.7-10.79-6.67Z" class="cls-2"/><path d="M439.29 90.03h-6.93v21.04h-6.17V90.03h-6.93V84.1h20.03v5.93Z" class="cls-2"/><path d="M441.79 102.36V84.1h6.16v17.72c0 2.04.96 3.78 4.24 3.78s4.24-1.73 4.24-3.78V84.1h6.17v18.26c0 5.78-4.47 9.25-10.4 9.25s-10.4-3.47-10.4-9.25Z" class="cls-2"/><path d="M490.91 97.58c0 7.63-5.66 13.48-13.1 13.48h-10.79V84.09h10.79c7.44 0 13.1 5.86 13.1 13.48Zm-5.93 0c0-4.62-2.93-7.55-7.17-7.55h-4.62v15.1h4.62c4.24 0 7.17-2.93 7.17-7.55Z" class="cls-2"/><path d="M511.33 105.13v5.93h-16.95V84.09h16.76v5.93h-10.59v4.47h9.63v5.86h-9.63v4.78h10.79Z" class="cls-2"/><path d="M535.98 84.1v26.97h-4.62l-10.4-14.64v14.64h-6.17V84.1h4.62l10.4 14.64V84.1h6.16Z" class="cls-2"/><path d="M558.71 90.03h-6.93v21.04h-6.17V90.03h-6.93V84.1h20.03v5.93Z" class="cls-2"/><path d="m559.28 104.94 5.32-3.08c.96 2.23 2.62 3.74 5.66 3.74s3.66-1.16 3.66-2.2c0-1.66-1.54-2.31-5.59-3.43-4.01-1.12-7.94-3.04-7.94-8.21s4.39-8.21 9.05-8.21 7.9 2.12 9.86 6.09l-5.2 3.04c-.92-1.93-2.2-3.12-4.66-3.12-1.93 0-2.89.96-2.89 2.04 0 1.23.66 2.08 4.85 3.35 4.08 1.23 8.67 2.66 8.67 8.36 0 5.2-4.16 8.28-10.02 8.28s-9.29-2.7-10.79-6.67Z" class="cls-2"/><path d="M586.83 95.46h-4.62l1.54-11.37h6.16l-3.08 11.37Z" class="cls-2"/><path d="M399.42 139.86V121.6h6.16v17.72c0 2.04.96 3.78 4.24 3.78s4.24-1.73 4.24-3.78V121.6h6.17v18.26c0 5.78-4.47 9.25-10.4 9.25s-10.4-3.47-10.4-9.25Z" class="cls-2"/><path d="M445.84 121.6v26.97h-4.62l-10.4-14.64v14.64h-6.17V121.6h4.62l10.4 14.64V121.6h6.16Z" class="cls-2"/><path d="M456.62 121.6v26.97h-6.17V121.6h6.17Z" class="cls-2"/><path d="M460.09 135.09c0-7.94 6.28-14.02 14.02-14.02s14.02 6.09 14.02 14.02-6.28 14.02-14.02 14.02-14.02-6.09-14.02-14.02Zm21.88 0c0-4.82-3.47-8.01-7.86-8.01s-7.86 3.2-7.86 8.01 3.47 8.01 7.86 8.01 7.86-3.2 7.86-8.01Z" class="cls-2"/><path d="M512.79 121.6v26.97h-4.62l-10.4-14.64v14.64h-6.17V121.6h4.62l10.4 14.64V121.6h6.16Z" class="cls-2"/><path d="M256.35 64.91s22.9-3.15 43.06-21.37c20.17-18.22 34-22.18 37.46-22.39 1.64-.1 5.1 2.07 8.01 4.65 3.23 2.85 5.85 6.16 5.85 6.16s-15.72-3.77-27.76 10.03c-12.04 13.8-22.94 44.46-23.2 52.92s-2.52 65.27 37.16 70.8c0 0-.32 13.07-11.51 18.67 0 0-31.95-6.06-50.47-36.33-18.53-30.27-14.73-38.51-14.86-51.83-.13-13.31 12.14-17.29 14.12-17.42s-17.85-13.89-17.85-13.89Z" class="cls-2"/><ellipse cx="278.22" cy="32.43" class="cls-2" rx="12.18" ry="18.67" transform="rotate(-13.78 278.29 32.41)"/><path d="M324.36 183.96s-7.73 6.85-17.58 9.3c-6.04 1.51-12.72-.04-18.51-1.85-7.77-2.43-15.17-6.06-22.11-10.28-14.18-8.63-26.38-20.53-35.48-34.4-6.46-9.85-11.33-20.7-14.93-31.91-10.59-32.95 12.69-45.59 12.69-45.59s9.52-6.8 27.91-4.33l31.61 7.27s-6.64.54-13.77 6.62c0 0-10.74 1.97-12.4 14.46-2.12 16.02.68 30.74 8.64 44.85 11.16 19.78 28.56 34.53 49.14 43.77 1.59.71 3.17 1.43 4.78 2.09Z" class="cls-1"/><ellipse cx="223.04" cy="47.98" class="cls-1" rx="12.18" ry="18.67" transform="rotate(-13.78 223.09 47.99)"/><path d="M336.87 21.15s20.07-4.49 34.32 17.02c14.26 21.51 16.73 45.17 14.82 74.77-1.91 29.6-19.16 56.38-26.51 62.8-7.36 6.41-21.19 20.7-52.72 17.53 0 0 33.14-7.62 31.39-43.45 0 0-4.51-38.78-38.03-59.4 0 0-10.96-9.2-25.94-11.61 0 0 8.19-9.55 24.76-6.18 16.57 3.37 30.31 14.69 47.42 14.28 17.11-.4 17.97-16.2 18.66-20.35 1.08-6.54-1.01-13.9-3.87-19.72-1.66-3.39-3.84-6.46-6.16-9.43-1.35-1.72-2.74-3.42-4.15-5.1-2.22-2.62-4.55-5.2-7.3-7.28-2.06-1.56-4.39-2.71-6.69-3.87Z" class="cls-3"/><ellipse cx="344.86" cy="63.97" class="cls-3" rx="12.18" ry="18.67" transform="rotate(-18.3 344.96 63.97)"/></svg>
